Coordinates
version=1
nRows=10
nColumns=22
inDegrees=yes

Units are S.I. units (second, meters, Newtons, ...)
If the header above contains a line with 'inDegrees', this indicates whether rotational values are in degrees (yes) or radians (no).

endheader
time	pelvis_tilt	pelvis_list	pelvis_rotation	pelvis_tx	pelvis_ty	pelvis_tz	hip_flexion_r	hip_adduction_r	hip_rotation_r	knee_angle_r	ankle_angle_r	subtalar_angle_r	hip_flexion_l	hip_adduction_l	hip_rotation_l	knee_angle_l	ankle_angle_l	subtalar_angle_l	lumbar_extension	lumbar_bending	lumbar_rotation
      1.47000000	     -6.34213071	     -0.90360451	     14.80680614	      0.96214576	      1.00905139	      0.27075559	     15.58767961	     -1.72585420	    -13.29238513	    -23.62440976	     10.28974709	     -0.11829784	     20.15347909	     -5.01071541	      0.29969738	    -32.73412803	     11.52711046	      7.92758398	     -5.49387560	      2.13944078	     -0.26827767
      1.48000000	     -6.29562851	     -0.79360430	     14.79454405	      0.96026911	      1.00931861	      0.27154739	     15.69621891	     -1.80870564	    -13.21924029	    -23.72158759	     10.18625972	     -0.13894251	     20.42714929	     -5.08868149	      0.01211598	    -34.47784884	     11.75173695	      7.60759599	     -5.56519219	      2.06167825	     -0.08119839
      1.49000000	     -6.25342144	     -0.70396500	     14.76072356	      0.95841864	      1.00959673	      0.27233479	     15.79134110	     -1.86931473	    -13.16135974	    -23.77305826	     10.05995511	     -0.14924124	     20.65253720	     -5.18324619	     -0.20036614	    -36.23867799	     11.89663255	      7.33575490	     -5.59477415	      1.98799204	      0.08406919
      1.50000000	     -6.21246605	     -0.62819913	     14.71058002	      0.95658598	      1.00989606	      0.27306737	     15.86518564	     -1.91670090	    -13.11769155	    -23.77516265	      9.91244716	     -0.15031162	     20.82013326	     -5.27586729	     -0.32633129	    -37.99261851	     11.96189676	      7.13292803	     -5.59209286	      1.92179941	      0.21878384
      1.51000000	     -6.17259648	     -0.56657764	     14.64711443	      0.95477364	      1.01020702	      0.27373509	     15.91968725	     -1.95112758	    -13.08551954	    -23.73366890	      9.75158357	     -0.14522192	     20.92925614	     -5.36538738	     -0.37974861	    -39.71930882	     11.96711535	      6.99846039	     -5.55690333	      1.86478536	      0.32561060
      1.52000000	     -6.13278972	     -0.51714575	     14.56672479	      0.95298232	      1.01052848	      0.27434370	     15.95617090	     -1.97381471	    -13.06239446	    -23.65392655	      9.58460216	     -0.13608886	     20.97484627	     -5.45240082	     -0.37975371	    -41.39533006	     11.92413426	      6.92378689	     -5.49481618	      1.81388090	      0.40581747
      1.53000000	     -6.09474937	     -0.48337193	     14.47599113	      0.95121541	      1.01084519	      0.27486252	     15.97836182	     -1.98156134	    -13.03705239	    -23.54024407	      9.41206774	     -0.12442172	     20.96391068	     -5.54351774	     -0.34889533	    -43.01271330	     11.84749008	      6.89160931	     -5.40232456	      1.77799002	      0.46512513
      1.54000000	     -6.04959586	     -0.45539815	     14.36629825	      0.94946802	      1.01117666	      0.27533629	     15.97950819	     -1.97807919	    -13.00281851	    -23.39698736	      9.24272794	     -0.10572404	     20.87868629	     -5.64048622	     -0.30917346	    -44.54385627	     11.73099019	      6.89313495	     -5.29838783	      1.74240347	      0.50432843
      1.55000000	     -6.00448593	     -0.44244653	     14.24064676	      0.94774759	      1.01149823	      0.27573905	     15.97329056	     -1.95975308	    -12.96557603	    -23.23520314	      9.07877433	     -0.07819353	     20.73033538	     -5.75774140	     -0.28173377	    -45.97828054	     11.60060106	      6.92954538	     -5.17136231	      1.71829438	      0.53183305
      1.56000000	     -5.95293078	     -0.41909224	     14.09692395	      0.94604100	      1.01183808	      0.27608236	     15.95220220	     -1.94800132	    -12.90577662	    -23.06201279	      8.93608553	     -0.03899129	     20.49944068	     -5.87362916	     -0.27721930	    -47.29045993	     11.41119998	      6.98380206	     -5.04049040	      1.67853203	      0.54714337
